<svg width="81" height="69" viewBox="0 0 81 69" fill="none" xmlns="http://www.w3.org/2000/svg">
<path d="M80.9996 44.2647C80.9996 57.7543 62.8938 68.6745 40.5527 68.6745C18.1058 68.5674 0 57.6473 0 44.2647C0 43.5153 0.105882 42.7658 0.211764 42.1235C2.01175 29.7044 19.3764 19.9619 40.5527 19.9619C61.7291 19.9619 79.0937 29.7044 80.8937 42.2305C80.8937 42.7658 80.9996 43.5153 80.9996 44.2647Z" fill="#FEBEBC"/>
<path d="M80.7796 42.1238C80.1443 45.1215 77.8149 47.5839 75.8032 50.7957C73.7914 54.0075 70.9326 56.577 66.6973 56.577C64.5797 56.577 62.2503 57.4335 60.4503 58.8253C57.5915 61.0735 53.6739 61.7159 50.1798 60.9665C47.1092 60.3241 43.6151 60.5382 40.4386 61.6088C35.2504 63.2147 30.8034 62.6794 26.4622 60.3241C22.5446 58.1829 18.4152 57.0052 14.6035 56.6841C8.99173 56.2558 5.81528 53.9005 3.69764 49.4039C2.42706 46.6204 0.627065 44.5862 0.0976562 42.1238C1.89765 29.7048 19.2623 19.9623 40.4386 19.9623C61.615 19.8552 78.9796 29.5977 80.7796 42.1238Z" fill="#FBAAA8"/>
<path d="M80.9996 37.4129C80.9996 41.16 78.2467 43.8366 75.9173 47.5837C73.9055 50.7955 71.0467 53.3649 66.8114 53.3649C64.6938 53.3649 62.3644 54.2214 60.5644 55.6132C57.5997 57.8615 53.788 58.5038 50.2939 57.7544C47.2233 57.1121 43.7292 57.3262 40.5527 58.3968C35.3645 60.0027 30.9175 59.4674 26.5763 57.1121C22.6587 54.9709 18.5293 53.7932 14.7176 53.5791C8.99995 53.1508 5.8235 50.6884 3.70586 46.1919C2.22352 42.9801 0 40.5177 0 37.4129C0 25.8504 18.1058 16.5361 40.4469 16.5361C62.7879 16.5361 80.9996 25.8504 80.9996 37.4129Z" fill="#FF8364"/>
<path d="M80.9996 30.133C80.9996 43.6226 62.8938 54.4357 40.5527 54.4357C18.1058 54.4357 0 43.5155 0 30.133C0 28.8482 0.211764 27.5635 0.529409 26.2788C3.59998 14.6092 20.3293 5.72314 40.4469 5.72314C60.5644 5.72314 77.3996 14.6092 80.4702 26.2788C80.7878 27.4565 80.9996 28.7412 80.9996 30.133Z" fill="#FBAAA8"/>
<path d="M80.4779 26.2788C77.4074 37.8413 60.678 46.7274 40.4546 46.7274C20.2311 46.7274 3.60768 37.8413 0.537109 26.2788C3.60768 14.6092 20.337 5.72314 40.4546 5.72314C60.5721 5.72314 77.4074 14.6092 80.4779 26.2788Z" fill="#FEBEBC"/>
<path d="M36.9375 23.968C36.3381 23.968 35.7801 23.5889 35.5798 22.9894C35.2893 22.1324 34.1233 19.6759 32.6454 19.6759C31.1259 19.6759 29.9442 22.2898 29.711 22.9894C29.4606 23.7377 28.6551 24.1454 27.9011 23.8936C27.1514 23.6447 26.7465 22.8335 26.9969 22.0838C27.1757 21.5444 28.8626 16.813 32.6468 16.813C36.431 16.813 38.1164 21.5444 38.2967 22.0838C38.5471 22.8335 38.1422 23.6447 37.3925 23.8936C37.2408 23.9451 37.0877 23.968 36.9375 23.968ZM51.2447 23.968C50.6452 23.968 50.0873 23.5889 49.8884 22.9894C49.5979 22.1324 48.4305 19.6759 46.9525 19.6759C45.4331 19.6759 44.2499 22.2898 44.0167 22.9894C43.7663 23.7377 42.9637 24.1454 42.2069 23.8936C41.4586 23.6447 41.0523 22.8335 41.3026 22.0838C41.4815 21.5444 43.1683 16.813 46.9511 16.813C50.7339 16.813 52.4208 21.5444 52.5996 22.0838C52.85 22.8335 52.4451 23.6447 51.6954 23.8936C51.5466 23.9451 51.3949 23.968 51.2447 23.968ZM53.1547 29.3089C52.9 29.0785 52.5195 29.0642 52.2462 29.2674C52.1904 29.3089 46.6349 33.4165 39.799 33.4165C32.9802 33.4165 27.4061 29.3089 27.3517 29.2674C27.0784 29.0642 26.6979 29.0814 26.4432 29.3089C26.19 29.5378 26.1327 29.9155 26.3087 30.2074C26.4933 30.515 30.9113 37.7086 39.799 37.7086C48.6866 37.7086 53.1061 30.515 53.2892 30.2074C53.4652 29.9141 53.4094 29.5392 53.1547 29.3089Z" fill="#664500"/>
<path d="M44.4238 5.35194C44.4238 5.69531 44.4667 6.02724 44.5411 6.34772C45.1492 10.1291 49.354 14.118 52.3671 15.2139C54.7493 14.3483 57.8697 11.6714 59.3748 8.71986C56.386 5.2289 52.4802 2.54773 48.0306 1.04834C45.9818 1.41603 44.4238 3.19728 44.4238 5.35194ZM33.7134 41.3073C33.795 40.9611 33.8422 40.6006 33.8422 40.2286C33.8422 37.6061 31.7161 35.48 29.0936 35.48C27.5012 35.48 26.0977 36.2655 25.235 37.4673C24.3737 36.2669 22.9687 35.48 21.3763 35.48C19.6008 35.48 18.0699 36.4658 17.2559 37.9094C19.8655 42.6236 23.9087 46.4322 28.7989 48.7457C31.141 46.8128 33.2785 44.0143 33.7134 41.3073ZM63.1261 36.3914C62.7227 35.0322 61.4779 34.035 59.9871 34.035C58.8841 34.035 57.9112 34.5787 57.3146 35.4114C56.7179 34.5787 55.7451 34.035 54.642 34.035C52.825 34.035 51.3528 35.5072 51.3528 37.3242C51.3528 37.5818 51.3857 37.8307 51.4415 38.0711C51.8807 40.7966 54.8008 43.6451 57.0341 44.5966C59.5751 42.3074 61.6568 39.5218 63.1261 36.3914Z" fill="#FFC7BF"/>
<path d="M62.1667 4.38229C62.1667 1.96152 60.2037 0 57.7844 0C56.315 0 55.0188 0.725375 54.2233 1.83418C53.4278 0.725375 52.1316 0 50.6622 0C48.2415 0 46.28 1.96152 46.28 4.38229C46.28 4.72567 46.3229 5.05759 46.3973 5.37807C47.0068 9.15947 51.2102 13.1483 54.2233 14.2442C57.2364 13.1483 61.4398 9.15947 62.0479 5.37951C62.1237 5.05759 62.1667 4.72567 62.1667 4.38229ZM31.525 40.3492C31.525 37.7266 29.3989 35.6006 26.7764 35.6006C25.184 35.6006 23.7805 36.3861 22.9177 37.5879C22.0565 36.3861 20.6515 35.6006 19.0591 35.6006C16.4366 35.6006 14.3105 37.7266 14.3105 40.3492C14.3105 40.7211 14.3578 41.0802 14.4379 41.4279C15.0974 45.5241 19.6514 49.8463 22.9163 51.0338C26.1812 49.8477 30.7352 45.5255 31.3948 41.4293C31.4777 41.0802 31.525 40.7197 31.525 40.3492ZM65.4902 37.0857C65.4902 35.2687 64.018 33.7965 62.201 33.7965C61.0979 33.7965 60.125 34.3401 59.5284 35.1728C58.9318 34.3401 57.9589 33.7965 56.8558 33.7965C55.0388 33.7965 53.5666 35.2687 53.5666 37.0857C53.5666 37.3432 53.5995 37.5922 53.6553 37.8325C54.1117 40.6696 57.2664 43.6641 59.5284 44.4854C61.7889 43.6641 64.9451 40.6696 65.4001 37.8325C65.4573 37.5922 65.4902 37.3432 65.4902 37.0857Z" fill="#DD2E44"/>
</svg>
