<svg width="81" height="63" viewBox="0 0 81 63" fill="none" xmlns="http://www.w3.org/2000/svg">
<path d="M80.9998 38.5416C80.9998 52.0312 62.894 62.9514 40.5528 62.9514C18.1058 62.8443 0 51.9241 0 38.5416C0 37.7921 0.105882 37.0427 0.211764 36.4003C2.01176 23.9813 19.3764 14.2388 40.5528 14.2388C61.7293 14.2388 79.0939 23.9813 80.8939 36.5074C80.8939 37.0427 80.9998 37.7921 80.9998 38.5416Z" fill="#FFE37E"/>
<path d="M80.7779 36.4007C80.1426 39.3984 77.8132 41.8608 75.8014 45.0726C73.7897 48.2844 70.9308 50.8539 66.6956 50.8539C64.5779 50.8539 62.2485 51.7104 60.4485 53.1022C57.5897 55.3504 53.6721 55.9928 50.1779 55.2434C47.1074 54.601 43.6133 54.8151 40.4368 55.8857C35.2486 57.4916 30.8015 56.9563 26.4604 54.601C22.5427 52.4598 18.4133 51.2821 14.6016 50.9609C8.9898 50.5327 5.81334 48.1774 3.6957 43.6808C2.42511 40.8972 0.625114 38.8631 0.0957031 36.4007C1.8957 23.9817 19.2604 14.2392 40.4368 14.2392C61.6132 14.1321 78.9779 23.8746 80.7779 36.4007Z" fill="#FACB53"/>
<path d="M80.9998 31.6898C80.9998 35.4369 78.2469 38.1135 75.9175 41.8606C73.9057 45.0724 71.0469 47.6419 66.8116 47.6419C64.694 47.6419 62.3646 48.4984 60.5646 49.8901C57.5999 52.1384 53.7881 52.7808 50.294 52.0314C47.2234 51.389 43.7293 51.6031 40.5528 52.6737C35.3646 54.2796 30.9176 53.7443 26.5764 51.389C22.6588 49.2478 18.5294 48.0701 14.7176 47.856C8.99998 47.4277 5.82352 44.9653 3.70587 40.4688C2.22352 37.257 0 34.7946 0 31.6898C0 20.1273 18.1058 10.813 40.447 10.813C62.7881 10.813 80.9998 20.1273 80.9998 31.6898Z" fill="#E6954B"/>
<path d="M80.9998 24.4098C80.9998 37.8995 62.894 48.7126 40.5528 48.7126C18.1058 48.7126 0 37.7924 0 24.4098C0 23.1251 0.211764 21.8404 0.529411 20.5557C3.59999 8.88604 20.3294 0 40.447 0C60.5646 0 77.3998 8.88604 80.4704 20.5557C80.788 21.7333 80.9998 23.0181 80.9998 24.4098Z" fill="#FACB53"/>
<path d="M80.4781 20.5557C77.4075 32.1182 60.6781 41.0043 40.4546 41.0043C20.2312 41.0043 3.60769 32.1182 0.537109 20.5557C3.60769 8.88604 20.3371 0 40.4546 0C60.5722 0 77.4075 8.88604 80.4781 20.5557Z" fill="#FFE37E"/>
<path d="M55.7981 31.7086C59.749 31.7086 62.9517 28.5058 62.9517 24.555C62.9517 20.6041 59.749 17.4014 55.7981 17.4014C51.8473 17.4014 48.6445 20.6041 48.6445 24.555C48.6445 28.5058 51.8473 31.7086 55.7981 31.7086Z" fill="#FF7892"/>
<path d="M24.3216 31.7086C28.2724 31.7086 31.4752 28.5058 31.4752 24.555C31.4752 20.6041 28.2724 17.4014 24.3216 17.4014C20.3707 17.4014 17.168 20.6041 17.168 24.555C17.168 28.5058 20.3707 31.7086 24.3216 31.7086Z" fill="#FF7892"/>
<path d="M55.7897 13.1085C55.4235 13.1085 55.0572 12.9683 54.7782 12.6893C51.0913 9.00522 44.6845 10.2056 44.6215 10.2199C43.8375 10.3759 43.095 9.86652 42.9419 9.09393C42.7888 8.31991 43.2881 7.56878 44.0621 7.41426C44.3869 7.34845 52.0212 5.89055 56.7998 10.6663C57.3592 11.2257 57.3592 12.1299 56.7998 12.6893C56.5223 12.9683 56.156 13.1085 55.7897 13.1085ZM24.3139 13.1085C23.9476 13.1085 23.5814 12.9683 23.3024 12.6893C22.743 12.1299 22.743 11.2257 23.3024 10.6663C28.081 5.88625 35.7182 7.34988 36.0401 7.41426C36.8155 7.56878 37.3177 8.32277 37.1618 9.09822C37.0072 9.87081 36.2561 10.3744 35.4807 10.2213C35.3819 10.1999 29.0009 9.01524 25.3254 12.6908C25.0464 12.9683 24.6802 13.1085 24.3139 13.1085ZM51.4976 20.2621C51.1313 20.2621 50.7651 20.1219 50.4861 19.8429C48.6204 17.9758 44.6344 18.4494 43.2581 18.7899C42.4855 18.9788 41.7172 18.5109 41.5255 17.7455C41.3352 16.9786 41.8002 16.2046 42.567 16.0129C42.8331 15.9471 49.1126 14.4234 52.5091 17.8199C53.0685 18.3793 53.0685 19.2835 52.5091 19.8429C52.2301 20.1219 51.8639 20.2621 51.4976 20.2621ZM28.6061 20.2621C28.2398 20.2621 27.8735 20.1219 27.5945 19.8429C27.0351 19.2835 27.0351 18.3793 27.5945 17.8199C30.9896 14.4248 37.2719 15.9471 37.538 16.0129C38.3035 16.2046 38.7685 16.9786 38.5782 17.7455C38.3893 18.5124 37.6153 18.9802 36.847 18.7899C35.4678 18.4508 31.4832 17.9787 29.619 19.8429C29.3386 20.1219 28.9723 20.2621 28.6061 20.2621Z" fill="#664500"/>
<path d="M32.9102 28.8472C32.9102 28.8472 34.3409 34.5701 40.0638 34.5701C45.7866 34.5701 47.2174 28.8472 47.2174 28.8472C47.2174 28.8472 45.7866 30.2779 40.0638 30.2779C34.3409 30.2779 32.9102 28.8472 32.9102 28.8472Z" fill="#664500"/>
<path d="M40.0626 35.2849C33.8532 35.2849 32.2308 29.0827 32.2151 29.0197C32.1364 28.7078 32.2766 28.3831 32.5556 28.2228C32.8288 28.0712 33.1708 28.1098 33.4011 28.3258C33.4569 28.3745 34.9263 29.562 40.0626 29.562C45.2761 29.562 46.7111 28.3387 46.7254 28.3273C46.9615 28.1184 47.3106 28.0826 47.5796 28.2414C47.8486 28.4031 47.9859 28.715 47.9101 29.0197C47.8943 29.0827 46.2719 35.2849 40.0626 35.2849ZM34.2667 30.2888C35.0922 31.8111 36.8062 33.8541 40.0626 33.8541C43.3189 33.8541 45.0343 31.8111 45.8584 30.2888C44.6852 30.6579 42.8525 30.9927 40.0626 30.9927C37.2727 30.9927 35.4399 30.6579 34.2667 30.2888ZM32.909 28.8466H32.9233H32.909Z" fill="#664500"/>
</svg>
