<svg width="81" height="63" viewBox="0 0 81 63" fill="none" xmlns="http://www.w3.org/2000/svg">
<path d="M81 38.5416C81 52.0313 62.8941 62.9515 40.5529 62.9515C18.1059 62.8444 0 51.9242 0 38.5416C0 37.7922 0.105882 37.0427 0.211765 36.4004C2.01176 23.9813 19.3765 14.2388 40.5529 14.2388C61.7294 14.2388 79.0941 23.9813 80.8941 36.5074C80.8941 37.0427 81 37.7922 81 38.5416Z" fill="#B3D9F3"/>
<path d="M80.7898 36.4008C80.1545 39.3985 77.8251 41.8609 75.8133 45.0727C73.8015 48.2845 70.9427 50.854 66.7074 50.854C64.5898 50.854 62.2604 51.7105 60.4604 53.1023C57.6015 55.3506 53.6839 55.9929 50.1898 55.2435C47.1192 54.6012 43.6251 54.8153 40.4486 55.8859C35.2604 57.4918 30.8133 56.9565 26.4721 54.6012C22.5545 52.4599 18.4251 51.2823 14.6133 50.9611C9.00154 50.5328 5.82507 48.1775 3.70742 43.6809C2.43683 40.8973 0.636834 38.8632 0.107422 36.4008C1.90742 23.9817 19.2721 14.2392 40.4486 14.2392C61.6251 14.1321 78.9898 23.8746 80.7898 36.4008Z" fill="#A7CDE7"/>
<path d="M81 31.6899C81 35.437 78.2471 38.1135 75.9176 41.8607C73.9059 45.0725 71.0471 47.642 66.8118 47.642C64.6941 47.642 62.3647 48.4985 60.5647 49.8902C57.6 52.1385 53.7882 52.7809 50.2941 52.0315C47.2235 51.3891 43.7294 51.6032 40.5529 52.6738C35.3647 54.2797 30.9176 53.7444 26.5765 51.3891C22.6588 49.2479 18.5294 48.0702 14.7176 47.8561C9 47.4278 5.82353 44.9654 3.70588 40.4689C2.22353 37.257 0 34.7946 0 31.6899C0 20.1273 18.1059 10.813 40.4471 10.813C62.7882 10.813 81 20.1273 81 31.6899Z" fill="#CB9090"/>
<path d="M81 24.4099C81 37.8996 62.8941 48.7127 40.5529 48.7127C18.1059 48.7127 0 37.7925 0 24.4099C0 23.1252 0.211765 21.8404 0.529412 20.5557C3.6 8.88606 20.3294 0 40.4471 0C60.5647 0 77.4 8.88606 80.4706 20.5557C80.7882 21.7334 81 23.0181 81 24.4099Z" fill="#A7CDE7"/>
<path d="M80.4647 20.5557C77.3941 32.1183 60.6647 41.0043 40.4411 41.0043C20.2176 41.0043 3.59403 32.1183 0.523437 20.5557C3.59403 8.88606 20.3235 0 40.4411 0C60.5588 0 77.3941 8.88606 80.4647 20.5557Z" fill="#B3D9F3"/>
<path d="M49.3592 25.7531C53.7051 25.7531 57.2282 22.23 57.2282 17.8841C57.2282 13.5382 53.7051 10.0151 49.3592 10.0151C45.0133 10.0151 41.4902 13.5382 41.4902 17.8841C41.4902 22.23 45.0133 25.7531 49.3592 25.7531Z" fill="#F4F7F9"/>
<path d="M30.7635 25.7531C35.1094 25.7531 38.6325 22.23 38.6325 17.8841C38.6325 13.5382 35.1094 10.0151 30.7635 10.0151C26.4176 10.0151 22.8945 13.5382 22.8945 17.8841C22.8945 22.23 26.4176 25.7531 30.7635 25.7531Z" fill="#F4F7F9"/>
<path d="M47.3688 32.083C43.4157 31.1287 34.674 31.9971 31.399 38.3853C31.2817 38.6114 31.3418 38.8903 31.5421 39.0492C31.6394 39.1278 31.7581 39.1665 31.8769 39.1665C31.9985 39.1665 32.1215 39.125 32.2217 39.042C36.6341 35.3507 42.8606 35.3507 46.5805 35.3507C48.9197 35.3507 50.2088 35.3507 50.2088 34.3378C50.2088 33.3248 49.2001 32.5236 47.3688 32.083ZM29.3288 17.1691C31.3046 17.1691 32.9056 15.5681 32.9056 13.5923C32.9056 11.801 31.585 10.3302 29.8667 10.0698C28.7364 10.1972 27.6834 10.5677 26.7506 11.1228C26.1354 11.7652 25.752 12.6323 25.752 13.5923C25.752 15.5681 27.3529 17.1691 29.3288 17.1691ZM47.9282 17.1691C49.904 17.1691 51.505 15.5681 51.505 13.5923C51.505 11.801 50.1845 10.3302 48.4662 10.0698C47.3373 10.1972 46.2829 10.5677 45.3515 11.1228C44.7348 11.7652 44.3514 12.6323 44.3514 13.5923C44.3514 15.5681 45.9524 17.1691 47.9282 17.1691Z" fill="#65471B"/>
</svg>
