<svg width="12" height="8" viewBox="0 0 12 8" fill="none" xmlns="http://www.w3.org/2000/svg">
<path d="M0.519475 3.26068H10.2265L7.91029 0.902664C7.70737 0.696222 7.70737 0.361334 7.91029 0.154923C8.11321 -0.051641 8.44219 -0.051641 8.6448 0.154923L11.8478 3.41554C12.0507 3.62198 12.0507 3.9569 11.8478 4.16328L8.6448 7.42406C8.54337 7.52737 8.41045 7.57895 8.27755 7.57895C8.14465 7.57895 8.01172 7.52737 7.91029 7.42406C7.70737 7.21761 7.70737 6.88273 7.91029 6.67634L10.2265 4.31821H0.519475C0.232618 4.31821 0 4.08144 0 3.78943C0 3.49742 0.232588 3.26068 0.519475 3.26068Z" fill="black"/>
</svg>
