<svg width="22" height="12" viewBox="0 0 22 12" fill="none" xmlns="http://www.w3.org/2000/svg">
<path fill-rule="evenodd" clip-rule="evenodd" d="M10.7637 11.8668H12.0788C12.0788 11.8668 12.476 11.8254 12.6788 11.6178C12.8654 11.4272 12.8595 11.0694 12.8595 11.0694C12.8595 11.0694 12.8338 9.39397 13.6527 9.14726C14.46 8.90423 15.4967 10.7665 16.5955 11.4825C17.4264 12.0244 18.0577 11.9056 18.0577 11.9056L20.9957 11.8668C20.9957 11.8668 22.5326 11.7769 21.8039 10.6295C21.7442 10.5357 21.3795 9.78077 19.6195 8.2296C17.7773 6.60611 18.024 6.86871 20.2431 4.06043C21.5945 2.35017 22.1348 1.30603 21.9661 0.858831C21.8051 0.432896 20.8111 0.545477 20.8111 0.545477L17.5031 0.565044C17.5031 0.565044 17.2579 0.533283 17.076 0.636505C16.8983 0.737743 16.7839 0.973681 16.7839 0.973681C16.7839 0.973681 16.2604 2.29714 15.5621 3.42266C14.0891 5.79763 13.5001 5.92297 13.2594 5.77551C12.6994 5.43182 12.8392 4.39477 12.8392 3.65803C12.8392 1.35651 13.2068 0.396882 12.1233 0.148468C11.7637 0.0659465 11.499 0.0114995 10.5795 0.00270853C9.39913 -0.00891818 8.4001 0.0061111 7.83443 0.269272C7.45811 0.44424 7.1678 0.83416 7.34461 0.856562C7.56324 0.884353 8.05842 0.983322 8.32095 1.32277C8.65994 1.76061 8.64799 2.74406 8.64799 2.74406C8.64799 2.74406 8.84272 5.45337 8.19312 5.78997C7.74722 6.02081 7.13555 5.5495 5.82232 3.39487C5.14943 2.29118 4.6414 1.07123 4.6414 1.07123C4.6414 1.07123 4.54344 0.843234 4.36872 0.721295C4.15666 0.573551 3.86039 0.526478 3.86039 0.526478L0.716936 0.546044C0.716936 0.546044 0.245045 0.558522 0.0718194 0.75334C-0.0822918 0.926607 0.059574 1.28505 0.059574 1.28505C0.059574 1.28505 2.52057 6.75187 5.30712 9.50683C7.8622 12.0327 10.7637 11.8668 10.7637 11.8668Z" fill="#292929"/>
</svg>
