<svg width="190" height="40" viewBox="0 0 190 40" fill="none" xmlns="http://www.w3.org/2000/svg">
<path d="M184 14C182.035 7.81182 183.304 9.29249 178 7C183.304 4.70751 182.035 6.18818 184 0C185.965 6.18818 184.696 4.70751 190 7C184.696 9.29249 185.965 7.81182 184 14Z" fill="white"/>
<path d="M6 24C4.03501 17.8118 5.30416 19.2925 0 17C5.30416 14.7075 4.03501 16.1882 6 10C7.96499 16.1882 6.69584 14.7075 12 17C6.69584 19.2925 7.96499 17.8118 6 24Z" fill="white"/>
<path d="M104 34C99.0875 18.9716 102.26 22.5675 89 17C102.26 11.4325 99.0875 15.0284 104 0C108.912 15.0284 105.74 11.4325 119 17C105.74 22.5675 108.912 18.9716 104 34Z" fill="white"/>
<path d="M54.5 40C51.0613 29.3917 53.2823 31.93 44 28C53.2823 24.07 51.0613 26.6083 54.5 16C57.9387 26.6083 55.7177 24.07 65 28C55.7177 31.93 57.9387 29.3917 54.5 40Z" fill="white"/>
<path d="M153.5 39C150.061 28.3917 152.282 30.93 143 27C152.282 23.07 150.061 25.6083 153.5 15C156.939 25.6083 154.718 23.07 164 27C154.718 30.93 156.939 28.3917 153.5 39Z" fill="white"/>
</svg>
